<?xml version="1.0" standalone="no"?>
<!DOCTYPE svg PUBLIC "-//W3C//DTD SVG 20010904//EN"
 "http://www.w3.org/TR/2001/REC-SVG-20010904/DTD/svg10.dtd">
<svg version="1.0" xmlns="http://www.w3.org/2000/svg"
 width="800" height="800" viewBox="0 0 800 800"
 preserveAspectRatio="xMidYMid meet">
<metadata>
Created by potrace 1.11, written by Peter Selinger 2001-2013
</metadata>
<g transform="translate(0,800) scale(0.100000,-0.100000)" fill="#000000" stroke="none">
<path d="M0 4000 l0 -4000 4000 0 4000 0 0 4000 0 4000 -4000 0 -4000 0 0
-4000z m4340 1305 c235 -42 463 -136 638 -263 34 -26 61 -51 59 -57 -13 -33
-281 -405 -292 -405 -8 0 -17 5 -20 10 -3 6 -52 37 -108 70 -182 108 -354 159
-533 160 -115 0 -182 -16 -241 -59 -116 -84 -114 -275 4 -353 69 -45 220 -97
440 -153 157 -39 278 -82 386 -137 177 -91 280 -184 342 -312 56 -114 69 -181
70 -346 0 -125 -3 -155 -23 -220 -62 -194 -182 -336 -372 -438 -268 -144 -676
-161 -1030 -42 -183 61 -419 199 -552 322 l-57 53 170 207 171 207 76 -61
c243 -194 447 -285 658 -295 95 -5 122 -3 180 15 123 38 187 115 188 227 1
158 -91 219 -484 324 -288 77 -460 145 -589 234 -118 80 -201 204 -237 352
-25 99 -25 336 0 425 81 298 346 497 731 549 91 13 317 5 425 -14z m-2183 -46
c135 -15 271 -51 372 -100 157 -76 275 -225 321 -405 36 -138 22 -318 -34
-440 -42 -91 -174 -213 -273 -253 -18 -8 -33 -17 -33 -20 0 -4 23 -13 51 -20
167 -43 328 -178 398 -333 42 -92 54 -169 49 -305 -4 -99 -10 -131 -35 -199
-102 -274 -313 -420 -668 -463 -57 -7 -323 -11 -717 -11 l-628 0 0 1273 c0
701 3 1277 7 1280 11 12 1085 8 1190 -4z m4234 -564 c110 -19 237 -63 341
-117 85 -44 212 -134 260 -185 l27 -28 -142 -186 -143 -186 -56 51 c-74 68
-166 121 -263 153 -114 37 -268 38 -371 1 -227 -80 -344 -252 -344 -505 0
-151 44 -273 129 -360 100 -101 210 -151 351 -160 169 -11 303 44 449 183 l88
84 162 -182 161 -182 -32 -34 c-55 -58 -194 -166 -276 -214 -87 -52 -193 -97
-297 -124 -105 -28 -368 -26 -487 4 -203 50 -352 130 -493 264 -152 143 -242
309 -281 515 -23 124 -15 375 16 488 45 165 125 302 250 426 159 159 359 262
579 299 79 13 284 11 372 -5z"/>
<path d="M1540 4504 l0 -277 223 6 c347 10 435 36 493 147 29 55 26 200 -4
262 -30 61 -58 83 -141 110 -59 19 -94 22 -318 26 l-253 4 0 -278z"/>
<path d="M1540 3484 l0 -297 278 6 c362 8 463 28 540 108 85 87 84 285 -2 374
-76 80 -218 105 -583 105 l-233 0 0 -296z"/>
</g>
</svg>
